# xmcd
#
# Track frame offsets:
#	150
#	9930
#	20512
#	31790
#	42727
#	52627
#	63337
#	74682
#	85035
#	94310
#	107100
#	117952
#	127627
#	137467
#	146962
#	156292
#	167555
#	177877
#	187040
#	198010
#	206367
#	217522
#	227857
#	237800
#	246632
#	257175
#	268047
#	276097
#	284597
#	293390
#	302685
#	312007
#	322210
#	333512
#
# Disc length: 4598 seconds
#
# Revision: 0
# Processed by: cddbd v1.5.1PL2 Copyright (c) Steve Scherf et al.
# Submitted via: dBpowerAMP V4.0
#
DISCID=e911f422
DTITLE=Jumpin' Bill Carlisle - Gonna Shake This Shack Tonight
DYEAR=2005
DGENRE=Country
TTITLE0=Busy Body Boogie
TTITLE1=Rattlesnake Daddy
TTITLE2=Love, Love, Love (That What It Is)
TTITLE3=No Help Wanted
TTITLE4=Something Different
TTITLE5=Knot Hole
TTITLE6=T'ain't Nice
TTITLE7=Too Old To Cut The Mustard
TTITLE8=Is Zat You Myrtle?
TTITLE9=I Need A Little Help
TTITLE10=Doggie Joe
TTITLE11=Feet Don't Fail Me (This Time)
TTITLE12=Shake A Leg
TTITLE13=If You Don't Want It
TTITLE14=Female Hercules
TTITLE15=Honey Love
TTITLE16=New Liza Jane
TTITLE17=I Don't Want To Run
TTITLE18=Money Tree
TTITLE19=Ladder Of Love
TTITLE20=Old Fashioned Love
TTITLE21=I'm Rough Stuff
TTITLE22=Dumb Bunny
TTITLE23=Who's A-Gonna Stop Me
TTITLE24=Uncle Bud
TTITLE25=Bessie Lou
TTITLE26=How Will I Know
TTITLE27=Tiny Space Man
TTITLE28=Down Boy
TTITLE29=Air Brakes
TTITLE30=John Came Home
TTITLE31=Monkey Business
TTITLE32=A Mouse Been Messing Aroung
TTITLE33=Woman Driver
EXTD=
EXTT0=
EXTT1=
EXTT2=
EXTT3=
EXTT4=
EXTT5=
EXTT6=
EXTT7=
EXTT8=
EXTT9=
EXTT10=
EXTT11=
EXTT12=
EXTT13=
EXTT14=
EXTT15=
EXTT16=
EXTT17=
EXTT18=
EXTT19=
EXTT20=
EXTT21=
EXTT22=
EXTT23=
EXTT24=
EXTT25=
EXTT26=
EXTT27=
EXTT28=
EXTT29=
EXTT30=
EXTT31=
EXTT32=
EXTT33=
PLAYORDER=
